<?xml version="1.0" encoding="UTF-8"?>
<svg id="Layer_2" data-name="Layer 2" xmlns="http://www.w3.org/2000/svg" viewBox="0 0 927 123.69">
  <defs>
    <style>
      .cls-1 {
        fill: #fff;
      }
    </style>
  </defs>
  <g id="Layer_1-2" data-name="Layer 1">
    <g>
      <path class="cls-1" d="M95.56,59.48c-.28-.11-.58-.2-.87-.31,4.8-2.52,8.59-5.7,11.35-9.58,3.32-4.67,4.98-10,4.98-15.97,0-9.01-3.89-16.42-11.66-22.22-7.77-5.8-19.83-8.7-36.16-8.7H0v118.28h66.58c16.33,0,28.75-2.87,37.26-8.62,8.5-5.75,12.76-13.74,12.76-24,0-6.87-1.83-12.76-5.49-17.66-3.66-4.9-8.84-8.64-15.55-11.24ZM57.79,30.58c4.5,0,7.8.73,9.89,2.2,2.08,1.47,3.13,3.66,3.13,6.59s-1.04,4.98-3.13,6.51c-2.09,1.52-5.38,2.28-9.89,2.28h-18.59v-17.57h18.59ZM73.08,90.74c-2.2,1.58-5.49,2.37-9.88,2.37h-24v-18.59h24c4.39,0,7.69.79,9.88,2.37,2.2,1.58,3.3,3.89,3.3,6.93s-1.1,5.35-3.3,6.93Z"/>
      <rect class="cls-1" x="119.13" y="2.7" width="39.88" height="118.28"/>
      <polygon class="cls-1" points="213.42 2.7 173.54 2.7 173.54 120.99 266.81 120.99 266.81 90.07 213.42 90.07 213.42 2.7"/>
      <polygon class="cls-1" points="316.32 2.7 276.44 2.7 276.44 120.99 369.72 120.99 369.72 90.07 316.32 90.07 316.32 2.7"/>
      <path class="cls-1" d="M507.52,8.11c-8.06-3.6-17.6-5.41-28.64-5.41h-56.95v118.28h39.88v-29.06h17.07c11.04,0,20.59-1.83,28.64-5.49,8.05-3.66,14.28-8.81,18.67-15.46,4.39-6.65,6.59-14.53,6.59-23.66s-2.2-17.04-6.59-23.74c-4.39-6.7-10.62-11.85-18.67-15.46ZM488.59,57.45c-2.65,2.48-6.73,3.72-12.25,3.72h-14.53v-27.71h14.53c5.52,0,9.6,1.24,12.25,3.72,2.65,2.48,3.97,5.86,3.97,10.14s-1.33,7.66-3.97,10.14Z"/>
      <rect class="cls-1" x="541.06" y="2.7" width="39.88" height="118.28"/>
      <polygon class="cls-1" points="631.97 2.7 592.09 2.7 592.09 120.99 685.36 120.99 685.36 90.07 631.97 90.07 631.97 2.7"/>
      <path class="cls-1" d="M799.76,17.49c-5.97-5.58-13.01-9.89-21.12-12.93-8.11-3.04-17.01-4.56-26.7-4.56s-18.45,1.52-26.61,4.56c-8.17,3.04-15.24,7.35-21.21,12.93-5.97,5.58-10.62,12.11-13.94,19.6-3.32,7.49-4.98,15.74-4.98,24.76s1.66,17.12,4.98,24.67c3.32,7.55,7.97,14.11,13.94,19.69,5.97,5.58,13.04,9.89,21.21,12.93,8.17,3.04,17.04,4.56,26.61,4.56s18.59-1.52,26.7-4.56c8.11-3.04,15.15-7.35,21.12-12.93,5.97-5.58,10.62-12.14,13.94-19.69,3.32-7.55,4.98-15.77,4.98-24.67s-1.66-17.26-4.98-24.76c-3.32-7.49-7.97-14.02-13.94-19.6ZM776.44,74.27c-1.35,3.66-3.24,6.76-5.66,9.29-2.42,2.53-5.24,4.48-8.45,5.83-3.21,1.35-6.67,2.03-10.39,2.03s-7.18-.68-10.39-2.03c-3.21-1.35-6.03-3.3-8.45-5.83-2.42-2.53-4.31-5.63-5.66-9.29-1.35-3.66-2.03-7.8-2.03-12.42s.68-8.76,2.03-12.42c1.35-3.66,3.24-6.76,5.66-9.29,2.42-2.53,5.24-4.48,8.45-5.83,3.21-1.35,6.67-2.03,10.39-2.03s7.18.68,10.39,2.03c3.21,1.35,6.02,3.29,8.45,5.83,2.42,2.53,4.31,5.63,5.66,9.29,1.35,3.66,2.03,7.8,2.03,12.42s-.68,8.76-2.03,12.42Z"/>
      <polygon class="cls-1" points="817.84 2.7 817.84 33.63 852.48 33.63 852.48 120.99 892.36 120.99 892.36 33.63 927 33.63 927 2.7 817.84 2.7"/>
    </g>
  </g>
</svg>