<svg xmlns="http://www.w3.org/2000/svg" viewBox="0 0 160 160">
  <rect width="160" height="160" rx="32" fill="#1b2432"/>
  <g transform="translate(22,19)">
    <path fill="#c8a96a" d="M95.56,59.48c-.28-.11-.58-.2-.87-.31,4.8-2.52,8.59-5.7,11.35-9.58,3.32-4.67,4.98-10,4.98-15.97,0-9.01-3.89-16.42-11.66-22.22-7.77-5.8-19.83-8.7-36.16-8.7H0v118.28h66.58c16.33,0,28.75-2.87,37.26-8.62,8.5-5.75,12.76-13.74,12.76-24,0-6.87-1.83-12.76-5.49-17.66-3.66-4.9-8.84-8.64-15.55-11.24ZM57.79,30.58c4.5,0,7.8.73,9.89,2.2,2.08,1.47,3.13,3.66,3.13,6.59s-1.04,4.98-3.13,6.51c-2.09,1.52-5.38,2.28-9.89,2.28h-18.59v-17.57h18.59ZM73.08,90.74c-2.2,1.58-5.49,2.37-9.88,2.37h-24v-18.59h24c4.39,0,7.69.79,9.88,2.37,2.2,1.58,3.3,3.89,3.3,6.93s-1.1,5.35-3.3,6.93Z"/>
  </g>
</svg>
